<mxfile host="app.diagrams.net" modified="2023-09-24T19:05:00.004Z" agent="Mozilla/5.0 (Windows NT 10.0; Win64; x64) AppleWebKit/537.36 (KHTML, like Gecko) Chrome/117.0.0.0 Safari/537.36" etag="mlQdYtSHkCM_d_BTRWpa" version="21.8.0" type="device">
  <diagram name="Page-1" id="b5b7bab2-c9e2-2cf4-8b2a-24fd1a2a6d21">
    <mxGraphModel dx="1548" dy="1748" grid="1" gridSize="10" guides="1" tooltips="1" connect="1" arrows="1" fold="1" page="1" pageScale="1" pageWidth="827" pageHeight="1169" background="none" math="0" shadow="0">
      <root>
        <mxCell id="0" />
        <mxCell id="1" parent="0" />
        <mxCell id="RFSDesvHmo4KZ42ihYAk-38" style="edgeStyle=orthogonalEdgeStyle;rounded=0;orthogonalLoop=1;jettySize=auto;html=1;" edge="1" parent="1" source="RFSDesvHmo4KZ42ihYAk-1">
          <mxGeometry relative="1" as="geometry">
            <mxPoint x="-30" y="-320" as="targetPoint" />
          </mxGeometry>
        </mxCell>
        <mxCell id="RFSDesvHmo4KZ42ihYAk-1" value="&lt;div style=&quot;text-align: justify;&quot;&gt;&lt;span style=&quot;background-color: initial;&quot;&gt;&lt;br&gt;&lt;font style=&quot;font-size: 18px;&quot;&gt;Web Server&lt;/font&gt;&lt;/span&gt;&lt;/div&gt;" style="verticalAlign=top;align=center;spacingTop=8;spacingLeft=2;spacingRight=12;shape=cube;size=10;direction=south;fontStyle=4;html=1;whiteSpace=wrap;" vertex="1" parent="1">
          <mxGeometry x="-140" y="-600" width="220" height="70" as="geometry" />
        </mxCell>
        <mxCell id="RFSDesvHmo4KZ42ihYAk-3" value="&lt;br&gt;Database Server" style="verticalAlign=top;align=center;spacingTop=8;spacingLeft=2;spacingRight=12;shape=cube;size=10;direction=south;fontStyle=4;html=1;whiteSpace=wrap;" vertex="1" parent="1">
          <mxGeometry x="324" y="-200" width="170" height="60" as="geometry" />
        </mxCell>
        <mxCell id="RFSDesvHmo4KZ42ihYAk-7" value="&lt;br&gt;Email Server" style="verticalAlign=top;align=center;spacingTop=8;spacingLeft=2;spacingRight=12;shape=cube;size=10;direction=south;fontStyle=4;html=1;whiteSpace=wrap;" vertex="1" parent="1">
          <mxGeometry x="563" y="-200" width="170" height="60" as="geometry" />
        </mxCell>
        <mxCell id="RFSDesvHmo4KZ42ihYAk-37" value="" style="group" vertex="1" connectable="0" parent="1">
          <mxGeometry x="-670" y="-310" width="675" height="330" as="geometry" />
        </mxCell>
        <mxCell id="RFSDesvHmo4KZ42ihYAk-8" value="" style="html=1;dropTarget=0;whiteSpace=wrap;" vertex="1" parent="RFSDesvHmo4KZ42ihYAk-37">
          <mxGeometry width="675" height="330" as="geometry" />
        </mxCell>
        <mxCell id="RFSDesvHmo4KZ42ihYAk-9" value="" style="shape=module;jettyWidth=8;jettyHeight=4;" vertex="1" parent="RFSDesvHmo4KZ42ihYAk-8">
          <mxGeometry x="1" width="20" height="20" relative="1" as="geometry">
            <mxPoint x="-27" y="7" as="offset" />
          </mxGeometry>
        </mxCell>
        <mxCell id="RFSDesvHmo4KZ42ihYAk-16" value="Web Frontend" style="html=1;dropTarget=0;whiteSpace=wrap;" vertex="1" parent="RFSDesvHmo4KZ42ihYAk-37">
          <mxGeometry x="33.75" y="75.42857142857142" width="173.31081081081084" height="28.285714285714285" as="geometry" />
        </mxCell>
        <mxCell id="RFSDesvHmo4KZ42ihYAk-17" value="" style="shape=module;jettyWidth=8;jettyHeight=4;" vertex="1" parent="RFSDesvHmo4KZ42ihYAk-16">
          <mxGeometry x="1" width="20" height="20" relative="1" as="geometry">
            <mxPoint x="-27" y="7" as="offset" />
          </mxGeometry>
        </mxCell>
        <mxCell id="RFSDesvHmo4KZ42ihYAk-20" value="Authentication Module&lt;span style=&quot;white-space: pre;&quot;&gt;&#x9;&lt;/span&gt;" style="html=1;dropTarget=0;whiteSpace=wrap;" vertex="1" parent="RFSDesvHmo4KZ42ihYAk-37">
          <mxGeometry x="246.2837837837838" y="75.42857142857142" width="164.1891891891892" height="28.285714285714285" as="geometry" />
        </mxCell>
        <mxCell id="RFSDesvHmo4KZ42ihYAk-21" value="" style="shape=module;jettyWidth=8;jettyHeight=4;" vertex="1" parent="RFSDesvHmo4KZ42ihYAk-20">
          <mxGeometry x="1" width="20" height="20" relative="1" as="geometry">
            <mxPoint x="-27" y="7" as="offset" />
          </mxGeometry>
        </mxCell>
        <mxCell id="RFSDesvHmo4KZ42ihYAk-22" value="Course Management&lt;span style=&quot;white-space: pre;&quot;&gt;&#x9;&lt;/span&gt;" style="html=1;dropTarget=0;whiteSpace=wrap;" vertex="1" parent="RFSDesvHmo4KZ42ihYAk-37">
          <mxGeometry x="465.2027027027027" y="75.42857142857142" width="164.1891891891892" height="28.285714285714285" as="geometry" />
        </mxCell>
        <mxCell id="RFSDesvHmo4KZ42ihYAk-23" value="" style="shape=module;jettyWidth=8;jettyHeight=4;" vertex="1" parent="RFSDesvHmo4KZ42ihYAk-22">
          <mxGeometry x="1" width="20" height="20" relative="1" as="geometry">
            <mxPoint x="-27" y="7" as="offset" />
          </mxGeometry>
        </mxCell>
        <mxCell id="RFSDesvHmo4KZ42ihYAk-24" value="Reporting Module&lt;span style=&quot;white-space: pre;&quot;&gt;&#x9;&lt;/span&gt;" style="html=1;dropTarget=0;whiteSpace=wrap;" vertex="1" parent="RFSDesvHmo4KZ42ihYAk-37">
          <mxGeometry x="465.2027027027027" y="250.79999999999998" width="164.1891891891892" height="28.285714285714285" as="geometry" />
        </mxCell>
        <mxCell id="RFSDesvHmo4KZ42ihYAk-25" value="" style="shape=module;jettyWidth=8;jettyHeight=4;" vertex="1" parent="RFSDesvHmo4KZ42ihYAk-24">
          <mxGeometry x="1" width="20" height="20" relative="1" as="geometry">
            <mxPoint x="-27" y="7" as="offset" />
          </mxGeometry>
        </mxCell>
        <mxCell id="RFSDesvHmo4KZ42ihYAk-26" value="Feedback Module" style="html=1;dropTarget=0;whiteSpace=wrap;" vertex="1" parent="RFSDesvHmo4KZ42ihYAk-37">
          <mxGeometry x="246.2837837837838" y="250.79999999999998" width="164.1891891891892" height="28.285714285714285" as="geometry" />
        </mxCell>
        <mxCell id="RFSDesvHmo4KZ42ihYAk-27" value="" style="shape=module;jettyWidth=8;jettyHeight=4;" vertex="1" parent="RFSDesvHmo4KZ42ihYAk-26">
          <mxGeometry x="1" width="20" height="20" relative="1" as="geometry">
            <mxPoint x="-27" y="7" as="offset" />
          </mxGeometry>
        </mxCell>
        <mxCell id="RFSDesvHmo4KZ42ihYAk-28" value="Discussion Forum&lt;span style=&quot;white-space: pre;&quot;&gt;&#x9;&lt;/span&gt;" style="html=1;dropTarget=0;whiteSpace=wrap;" vertex="1" parent="RFSDesvHmo4KZ42ihYAk-37">
          <mxGeometry x="38.310810810810814" y="250.79999999999998" width="164.1891891891892" height="28.285714285714285" as="geometry" />
        </mxCell>
        <mxCell id="RFSDesvHmo4KZ42ihYAk-29" value="" style="shape=module;jettyWidth=8;jettyHeight=4;" vertex="1" parent="RFSDesvHmo4KZ42ihYAk-28">
          <mxGeometry x="1" width="20" height="20" relative="1" as="geometry">
            <mxPoint x="-27" y="7" as="offset" />
          </mxGeometry>
        </mxCell>
        <mxCell id="RFSDesvHmo4KZ42ihYAk-30" value="Progress Tracking&lt;span style=&quot;white-space: pre;&quot;&gt;&#x9;&lt;/span&gt;" style="html=1;dropTarget=0;whiteSpace=wrap;" vertex="1" parent="RFSDesvHmo4KZ42ihYAk-37">
          <mxGeometry x="465.2027027027027" y="169.71428571428572" width="164.1891891891892" height="28.285714285714285" as="geometry" />
        </mxCell>
        <mxCell id="RFSDesvHmo4KZ42ihYAk-31" value="" style="shape=module;jettyWidth=8;jettyHeight=4;" vertex="1" parent="RFSDesvHmo4KZ42ihYAk-30">
          <mxGeometry x="1" width="20" height="20" relative="1" as="geometry">
            <mxPoint x="-27" y="7" as="offset" />
          </mxGeometry>
        </mxCell>
        <mxCell id="RFSDesvHmo4KZ42ihYAk-32" value="Quiz and Assignment&lt;span style=&quot;white-space: pre;&quot;&gt;&#x9;&lt;/span&gt;" style="html=1;dropTarget=0;whiteSpace=wrap;" vertex="1" parent="RFSDesvHmo4KZ42ihYAk-37">
          <mxGeometry x="246.2837837837838" y="162.17142857142858" width="164.1891891891892" height="28.285714285714285" as="geometry" />
        </mxCell>
        <mxCell id="RFSDesvHmo4KZ42ihYAk-33" value="" style="shape=module;jettyWidth=8;jettyHeight=4;" vertex="1" parent="RFSDesvHmo4KZ42ihYAk-32">
          <mxGeometry x="1" width="20" height="20" relative="1" as="geometry">
            <mxPoint x="-27" y="7" as="offset" />
          </mxGeometry>
        </mxCell>
        <mxCell id="RFSDesvHmo4KZ42ihYAk-34" value="Content Management&lt;span style=&quot;white-space: pre;&quot;&gt;&#x9;&lt;/span&gt;" style="html=1;dropTarget=0;whiteSpace=wrap;" vertex="1" parent="RFSDesvHmo4KZ42ihYAk-37">
          <mxGeometry x="38.310810810810814" y="162.17142857142858" width="164.1891891891892" height="28.285714285714285" as="geometry" />
        </mxCell>
        <mxCell id="RFSDesvHmo4KZ42ihYAk-35" value="" style="shape=module;jettyWidth=8;jettyHeight=4;" vertex="1" parent="RFSDesvHmo4KZ42ihYAk-34">
          <mxGeometry x="1" width="20" height="20" relative="1" as="geometry">
            <mxPoint x="-27" y="7" as="offset" />
          </mxGeometry>
        </mxCell>
        <mxCell id="RFSDesvHmo4KZ42ihYAk-36" value="&lt;font style=&quot;font-size: 18px;&quot;&gt;&lt;b style=&quot;&quot;&gt;EduLearners&lt;/b&gt;&lt;/font&gt;" style="text;html=1;align=center;verticalAlign=middle;resizable=0;points=[];autosize=1;strokeColor=none;fillColor=none;" vertex="1" parent="RFSDesvHmo4KZ42ihYAk-37">
          <mxGeometry x="270.4054054054054" y="18.857142857142854" width="130" height="40" as="geometry" />
        </mxCell>
        <mxCell id="RFSDesvHmo4KZ42ihYAk-43" style="edgeStyle=orthogonalEdgeStyle;rounded=0;orthogonalLoop=1;jettySize=auto;html=1;exitX=1;exitY=0.5;exitDx=0;exitDy=0;entryX=0;entryY=0.412;entryDx=0;entryDy=0;entryPerimeter=0;" edge="1" parent="1" target="RFSDesvHmo4KZ42ihYAk-5">
          <mxGeometry relative="1" as="geometry">
            <mxPoint x="-7" y="-293" as="sourcePoint" />
            <mxPoint x="275.0666666666666" y="-200" as="targetPoint" />
            <Array as="points">
              <mxPoint x="200" y="-293" />
            </Array>
          </mxGeometry>
        </mxCell>
        <mxCell id="RFSDesvHmo4KZ42ihYAk-44" style="edgeStyle=orthogonalEdgeStyle;rounded=0;orthogonalLoop=1;jettySize=auto;html=1;exitX=1;exitY=0.5;exitDx=0;exitDy=0;entryX=0;entryY=0;entryDx=0;entryDy=80;entryPerimeter=0;" edge="1" parent="1" source="RFSDesvHmo4KZ42ihYAk-9" target="RFSDesvHmo4KZ42ihYAk-3">
          <mxGeometry relative="1" as="geometry" />
        </mxCell>
        <mxCell id="RFSDesvHmo4KZ42ihYAk-47" value="Store Files" style="text;html=1;align=center;verticalAlign=middle;resizable=0;points=[];autosize=1;strokeColor=none;fillColor=none;" vertex="1" parent="1">
          <mxGeometry x="372" y="-252" width="80" height="30" as="geometry" />
        </mxCell>
        <mxCell id="RFSDesvHmo4KZ42ihYAk-49" value="&lt;font style=&quot;font-size: 14px;&quot;&gt;Handle HTTP request&lt;/font&gt;" style="text;html=1;align=center;verticalAlign=middle;resizable=0;points=[];autosize=1;strokeColor=none;fillColor=none;" vertex="1" parent="1">
          <mxGeometry x="-89" y="-427" width="160" height="30" as="geometry" />
        </mxCell>
        <mxCell id="RFSDesvHmo4KZ42ihYAk-54" value="" style="edgeStyle=orthogonalEdgeStyle;rounded=0;orthogonalLoop=1;jettySize=auto;html=1;exitX=1;exitY=0.5;exitDx=0;exitDy=0;entryX=0;entryY=0;entryDx=0;entryDy=80;entryPerimeter=0;" edge="1" parent="1" target="RFSDesvHmo4KZ42ihYAk-7">
          <mxGeometry relative="1" as="geometry">
            <mxPoint x="-7" y="-293" as="sourcePoint" />
            <mxPoint x="650" y="-200" as="targetPoint" />
            <Array as="points" />
          </mxGeometry>
        </mxCell>
        <mxCell id="RFSDesvHmo4KZ42ihYAk-48" value="Send Emails" style="text;html=1;align=center;verticalAlign=middle;resizable=0;points=[];autosize=1;strokeColor=none;fillColor=none;" vertex="1" parent="1">
          <mxGeometry x="611" y="-251.14" width="90" height="30" as="geometry" />
        </mxCell>
        <mxCell id="RFSDesvHmo4KZ42ihYAk-5" value="&lt;br&gt;File Storage Server" style="verticalAlign=top;align=center;spacingTop=8;spacingLeft=2;spacingRight=12;shape=cube;size=10;direction=south;fontStyle=4;html=1;whiteSpace=wrap;" vertex="1" parent="1">
          <mxGeometry x="100" y="-202" width="170" height="60" as="geometry" />
        </mxCell>
        <mxCell id="RFSDesvHmo4KZ42ihYAk-46" value="Access Database" style="text;html=1;align=center;verticalAlign=middle;resizable=0;points=[];autosize=1;strokeColor=none;fillColor=none;" vertex="1" parent="1">
          <mxGeometry x="146" y="-252" width="120" height="30" as="geometry" />
        </mxCell>
      </root>
    </mxGraphModel>
  </diagram>
</mxfile>
